<svg xmlns="http://www.w3.org/2000/svg"  viewBox="0 0 24 24" width="96px" height="96px"><path d="M 11.71875 2 C 10.105469 2.042969 8.496094 2.480469 7 3.34375 C 2.21875 6.105469 0.582031 12.21875 3.34375 17 C 6.105469 21.78125 12.21875 23.417969 17 20.65625 C 21.78125 17.894531 23.417969 11.78125 20.65625 7 C 18.757813 3.710938 15.265625 1.90625 11.71875 2 Z M 8.9375 4.75 C 9.90625 4.632813 10.960938 5.082031 12 5.875 C 12.253906 5.683594 12.527344 5.519531 12.78125 5.375 C 14.332031 4.480469 15.378906 4.703125 16 5.0625 C 17.183594 5.746094 17.535156 7.210938 17.3125 8.9375 C 18.917969 9.609375 20 10.632813 20 12 C 20 12.714844 19.675781 13.761719 18.125 14.65625 C 17.871094 14.800781 17.605469 14.9375 17.3125 15.0625 C 17.535156 16.792969 17.183594 18.253906 16 18.9375 C 14.816406 19.621094 13.386719 19.183594 12 18.125 C 11.746094 18.316406 11.503906 18.480469 11.25 18.625 C 9.699219 19.519531 8.621094 19.296875 8 18.9375 C 7.386719 18.582031 6.390625 17.589844 6.6875 15.09375 C 6.691406 15.078125 6.714844 15.078125 6.71875 15.0625 C 6.703125 15.054688 6.671875 15.039063 6.65625 15.03125 C 4.34375 14.039063 4 12.710938 4 12 C 4 11.285156 4.324219 10.238281 5.875 9.34375 C 6.128906 9.199219 6.394531 9.058594 6.6875 8.9375 C 6.464844 7.207031 6.816406 5.746094 8 5.0625 C 8.296875 4.890625 8.613281 4.789063 8.9375 4.75 Z M 9.0625 5.75 C 8.859375 5.769531 8.671875 5.839844 8.5 5.9375 C 7.816406 6.332031 7.566406 7.316406 7.6875 8.59375 C 8.335938 8.398438 9.03125 8.257813 9.78125 8.15625 C 10.242188 7.558594 10.726563 7.027344 11.21875 6.5625 C 10.433594 6.003906 9.675781 5.691406 9.0625 5.75 Z M 14.5 5.78125 C 14.121094 5.835938 13.714844 6 13.28125 6.25 C 13.125 6.339844 12.941406 6.417969 12.78125 6.53125 C 13.28125 7 13.765625 7.566406 14.21875 8.15625 C 14.957031 8.253906 15.6875 8.398438 16.34375 8.59375 C 16.460938 7.316406 16.183594 6.332031 15.5 5.9375 C 15.210938 5.769531 14.878906 5.726563 14.5 5.78125 Z M 12 7.1875 C 11.726563 7.4375 11.460938 7.726563 11.1875 8.03125 C 11.457031 8.019531 11.722656 8 12 8 C 12.273438 8 12.539063 8.019531 12.8125 8.03125 C 12.539063 7.726563 12.273438 7.4375 12 7.1875 Z M 12 9 C 11.421875 9 10.851563 9.039063 10.3125 9.09375 C 9.996094 9.53125 9.695313 9.996094 9.40625 10.5 C 9.117188 11.003906 8.875 11.503906 8.65625 12 C 8.875 12.496094 9.117188 12.996094 9.40625 13.5 C 9.695313 14.003906 9.992188 14.46875 10.3125 14.90625 C 10.851563 14.964844 11.421875 15 12 15 C 12.578125 15 13.148438 14.964844 13.6875 14.90625 C 14.007813 14.46875 14.304688 14.003906 14.59375 13.5 C 14.882813 12.996094 15.15625 12.496094 15.375 12 C 15.15625 11.503906 14.882813 11.003906 14.59375 10.5 C 14.304688 9.996094 14.007813 9.53125 13.6875 9.09375 C 13.148438 9.035156 12.578125 9 12 9 Z M 8.96875 9.3125 C 8.570313 9.394531 8.199219 9.480469 7.84375 9.59375 C 7.921875 9.960938 8.023438 10.355469 8.15625 10.75 C 8.285156 10.503906 8.390625 10.242188 8.53125 10 C 8.667969 9.761719 8.824219 9.539063 8.96875 9.3125 Z M 15.03125 9.3125 C 15.179688 9.542969 15.332031 9.761719 15.46875 10 C 15.605469 10.238281 15.71875 10.476563 15.84375 10.71875 C 15.972656 10.332031 16.078125 9.957031 16.15625 9.59375 C 15.804688 9.480469 15.429688 9.394531 15.03125 9.3125 Z M 6.875 9.96875 C 6.695313 10.050781 6.53125 10.128906 6.375 10.21875 C 5.511719 10.71875 5 11.332031 5 12 C 5 12.792969 5.734375 13.527344 6.90625 14.0625 C 7.058594 13.410156 7.28125 12.722656 7.5625 12.03125 C 7.273438 11.335938 7.035156 10.644531 6.875 9.96875 Z M 17.125 9.96875 C 16.96875 10.632813 16.71875 11.3125 16.4375 12 C 16.722656 12.6875 16.96875 13.394531 17.125 14.0625 C 17.304688 13.980469 17.46875 13.871094 17.625 13.78125 C 18.488281 13.28125 19 12.667969 19 12 C 19 11.210938 18.289063 10.503906 17.125 9.96875 Z M 11.875 11 C 12.261719 10.953125 12.667969 11.140625 12.875 11.5 C 13.152344 11.976563 12.976563 12.597656 12.5 12.875 C 12.023438 13.152344 11.402344 12.976563 11.125 12.5 C 10.847656 12.023438 11.023438 11.402344 11.5 11.125 C 11.621094 11.054688 11.746094 11.015625 11.875 11 Z M 8.15625 13.28125 C 8.027344 13.667969 7.921875 14.042969 7.84375 14.40625 C 8.195313 14.519531 8.570313 14.605469 8.96875 14.6875 C 8.820313 14.457031 8.667969 14.238281 8.53125 14 C 8.394531 13.761719 8.28125 13.523438 8.15625 13.28125 Z M 15.84375 13.28125 C 15.71875 13.523438 15.605469 13.761719 15.46875 14 C 15.332031 14.238281 15.175781 14.460938 15.03125 14.6875 C 15.429688 14.605469 15.800781 14.519531 16.15625 14.40625 C 16.078125 14.042969 15.972656 13.667969 15.84375 13.28125 Z M 7.6875 15.40625 C 7.566406 16.6875 7.8125 17.667969 8.5 18.0625 C 9.078125 18.398438 9.886719 18.28125 10.75 17.78125 C 10.90625 17.691406 11.058594 17.582031 11.21875 17.46875 C 10.714844 16.992188 10.210938 16.441406 9.75 15.84375 C 9.011719 15.742188 8.332031 15.601563 7.6875 15.40625 Z M 16.3125 15.40625 C 15.664063 15.601563 14.96875 15.742188 14.21875 15.84375 C 13.757813 16.441406 13.273438 16.976563 12.78125 17.4375 C 13.828125 18.179688 14.816406 18.457031 15.5 18.0625 C 16.183594 17.667969 16.433594 16.6875 16.3125 15.40625 Z M 11.15625 15.96875 C 11.433594 16.277344 11.722656 16.558594 12 16.8125 C 12.273438 16.5625 12.539063 16.273438 12.8125 15.96875 C 12.542969 15.980469 12.277344 16 12 16 C 11.71875 16 11.433594 15.984375 11.15625 15.96875 Z"/></svg>